<svg version="1.2" xmlns="http://www.w3.org/2000/svg" viewBox="0 0 466 432" width="287" height="266">
	<title>9105979_26146-ai-svg</title>
	<defs>
		<clipPath clipPathUnits="userSpaceOnUse" id="cp1">
			<path d="m0 83h466v266h-466z"/>
		</clipPath>
		<linearGradient id="g1" x2="1" gradientUnits="userSpaceOnUse" gradientTransform="matrix(39.062,11.927,-13.431,43.988,207.834,166.387)">
			<stop offset="0" stop-color="#747474"/>
			<stop offset=".151" stop-color="#4d4d4d"/>
			<stop offset=".43" stop-color="#d8d8d8"/>
			<stop offset=".627" stop-color="#d8d8d8"/>
			<stop offset=".926" stop-color="#4d4d4d"/>
			<stop offset="1" stop-color="#7d7d7d"/>
		</linearGradient>
		<linearGradient id="g2" x2="1" gradientUnits="userSpaceOnUse" gradientTransform="matrix(35.652,9.663,-12.683,46.796,239.024,182.909)">
			<stop offset="0" stop-color="#747474"/>
			<stop offset=".151" stop-color="#4d4d4d"/>
			<stop offset=".43" stop-color="#d8d8d8"/>
			<stop offset=".627" stop-color="#d8d8d8"/>
			<stop offset=".926" stop-color="#4d4d4d"/>
			<stop offset="1" stop-color="#7d7d7d"/>
		</linearGradient>
		<linearGradient id="g3" x2="1" gradientUnits="userSpaceOnUse" gradientTransform="matrix(0,151.954,-37.846,0,558.964,115.27)">
			<stop offset="0" stop-color="#747474"/>
			<stop offset=".151" stop-color="#4d4d4d"/>
			<stop offset=".43" stop-color="#d8d8d8"/>
			<stop offset=".627" stop-color="#d8d8d8"/>
			<stop offset=".926" stop-color="#4d4d4d"/>
			<stop offset="1" stop-color="#7d7d7d"/>
		</linearGradient>
		<radialGradient id="g4" cx="0" cy="0" r="1" gradientUnits="userSpaceOnUse" gradientTransform="matrix(86.421,0,0,86.421,103.884,304.945)">
			<stop offset=".139" stop-color="#f3f3f3"/>
			<stop offset=".294" stop-color="#3f3f3f"/>
			<stop offset=".965" stop-color="#000000"/>
		</radialGradient>
		<radialGradient id="g5" cx="0" cy="0" r="1" gradientUnits="userSpaceOnUse" gradientTransform="matrix(86.421,0,0,86.421,360.884,304.945)">
			<stop offset=".139" stop-color="#f3f3f3"/>
			<stop offset=".294" stop-color="#3f3f3f"/>
			<stop offset=".965" stop-color="#000000"/>
		</radialGradient>
	</defs>
	<style>
		tspan { white-space:pre } 
		.s0 { mix-blend-mode: screen;fill: url(#g1) } 
		.s1 { mix-blend-mode: screen;fill: url(#g2) } 
		.s2 { mix-blend-mode: screen;fill: url(#g3) } 
		.t3 { font-size: 13px;fill: #000000;font-weight: 400;font-family: "LiberationSans", "Liberation Sans" } 
		.s4 { mix-blend-mode: screen;fill: url(#g4) } 
		.s5 { mix-blend-mode: screen;fill: url(#g5) } 
	</style>
	<g id="_Artboards_">
	</g>
	<g id="Layer 1">
		<g id="&lt;Group&gt;">
			<g id="Clip-Path: &lt;Clip Group&gt;" clip-path="url(#cp1)">
				<g id="&lt;Clip Group&gt;">
					<g id="&lt;Group&gt;">
						<g id="&lt;Group&gt;">
						</g>
					</g>
					<g id="&lt;Group&gt;">
						<g id="&lt;Group&gt;">
						</g>
					</g>
				</g>
			</g>
			<g id="&lt;Group&gt;">
				<path id="&lt;Path&gt;" class="s0" d="m244.2 176.7l-13.2 21h-5.8l-4.8-21h6.1l3 13.6 8.6-13.6z"/>
				<path id="&lt;Path&gt;" class="s1" d="m239.5 209.1q-2.4-0.6-3.9-1.6l2.4-4.4q1.6 1 3.4 1.5 1.8 0.6 3.6 0.6 1.7 0 2.6-0.5 1-0.5 1-1.4 0-0.8-0.9-1.2-0.8-0.4-2.6-0.9-2.1-0.5-3.4-1.1-1.4-0.5-2.3-1.7-1-1.1-1-3 0-2.2 1.2-3.9 1.2-1.7 3.5-2.6 2.3-1 5.4-1 2.2 0 4.2 0.5 1.9 0.5 3.3 1.3l-2.1 4.4q-1.3-0.7-2.7-1.1-1.5-0.4-3.1-0.4-1.8 0-2.8 0.5-1 0.6-1 1.5 0 0.8 0.9 1.2 0.9 0.4 2.7 0.9 2 0.5 3.4 1 1.3 0.6 2.3 1.7 0.9 1.1 0.9 2.9 0 2.2-1.2 3.9-1.3 1.7-3.6 2.6-2.3 1-5.3 1-2.6 0-4.9-0.7z"/>
				<path id="&lt;Path&gt;" class="s2" d="m219.3 269.1c2.6-13.5 5.5-26.9 8.6-40.2 1.5-6.7 3.1-13.3 4.7-20l4.9-19.9 5.1-19.9c1.7-6.6 3.4-13.2 5.3-19.8q2.6-9.9 5.4-19.8l5.7-19.8c-0.4 3.4-1.1 6.8-1.8 10.2-0.6 3.3-1.4 6.7-2 10l-2.2 10.1c-0.7 3.3-1.5 6.6-2.3 10q-1.1 5-2.3 10l-2.3 10-4.9 19.9-5.1 19.9c-1.8 6.6-3.5 13.2-5.4 19.8-3.6 13.2-7.3 26.4-11.4 39.5z"/>
			</g>
		</g>
		<text id="" style="transform: matrix(1,0,0,1,92,148)" >
			<tspan x="0" y="15.6" class="t3">		
</tspan>
		</text>
		<path id="&lt;Path&gt; copy" class="s4" d="m103.9 311c-47.8 0-86.4-2.7-86.4-6.1 0-3.3 38.6-6 86.4-6 47.8 0 86.4 2.7 86.4 6 0 3.4-38.6 6.1-86.4 6.1z"/>
		<path id="&lt;Path&gt; copy 2" class="s5" d="m360.9 311c-47.8 0-86.4-2.7-86.4-6.1 0-3.3 38.6-6 86.4-6 47.8 0 86.4 2.7 86.4 6 0 3.4-38.6 6.1-86.4 6.1z"/>
	</g>
</svg>