<svg version="1.2" xmlns="http://www.w3.org/2000/svg" viewBox="0 0 304 380" width="30" height="38">
	<title>noun-pingpong-5437115-svg</title>
	<style>
		.s0 { fill: #000000 } 
	</style>
	<path id="Layer" class="s0" d="m88.2 269.7c-10.1 0-20-10.6-28-19.2-3.1-3.3-6.3-6.7-8.1-8l-0.6-0.3-0.4-0.5c-4.1-4.6-5.7-9.4-4.9-14.2 1.8-10.4 14-17.3 26.9-24.7 9.5-5.4 20.2-11.5 21.6-16.8 0.2-0.9 0.3-2-0.8-3.9-10.1-13.6-15.8-27.1-17-40.1-0.3-2.7 1.8-5.1 4.5-5.4 2.8-0.2 5.2 1.8 5.5 4.5 1 11.2 6.1 23.1 15.2 35.3l0.2 0.4c2.4 3.8 3.1 7.7 2 11.7-2.4 9.4-14 16-26.2 23-9.4 5.3-21.1 12-22 17.6-0.1 0.7-0.4 2.5 2.1 5.6 2.7 1.9 5.8 5.2 9.3 9 5.7 6.1 15.3 16.4 20.9 16 0.9-0.1 2.3-0.4 3.9-2.8l24.1-39.1c0.4-0.6 0.7-1.3 1.2-1.9h-0.1c8.3-12.6 20.5-4.9 27-0.8 1.8 1.1 3.5 2.1 4.9 2.8l0.4 0.3c25.3 15.1 54.6 3.7 70.4-15.4l0.1-0.2c43.2-47.9 35.6-97.2 10.3-122.7-25-25.1-71.3-31.6-118.7 10.4-2.1 1.8-5.2 1.6-7.1-0.4-1.8-2.1-1.6-5.3 0.4-7.1 23.5-20.8 49-32.2 73.9-32.9 22.4-0.6 43.2 7.5 58.6 23 15.7 15.8 24 37.5 23.3 61-0.7 25.9-12.2 52-33.2 75.3-18.5 22.3-52.9 35.5-83 17.7-1.8-1-3.8-2.2-5.6-3.4-9.1-5.7-11-5.6-13.3-2.2-1.1 1.8-25.1 40.9-25.1 40.9l-0.2 0.3c-3.8 5.5-8.3 6.9-11.4 7.2q-0.5 0-1.1 0z"/>
	<path id="Layer" fill-rule="evenodd" class="s0" d="m88.1 269.7c-10.1 0-20.4-11.1-27.7-19.1-3.2-3.3-6.4-6.8-8.2-8l-0.4-0.2-0.4-0.4c-3.7-3.4-5.6-8.6-5.2-13.8 0.4-4.9 2.8-9.2 6.7-11.9 11.2-7.7 20-13.5 26.4-17.7 8.1-5.2 15.1-9.8 15.9-11.6-0.1-0.9-1.6-3.3-2.7-5.3-3.9-6.5-10.5-17.5-15.5-39-0.6-2.7 1-5.4 3.7-6 2.7-0.6 5.4 1.1 6 3.7 4.7 20 10.8 30.2 14.4 36.2 3.2 5.5 6 10.2 2.6 15.8-2.5 3.8-7.6 7.2-18.9 14.6-6.4 4.2-15.1 9.9-26.2 17.6-1.9 1.3-2.4 3.3-2.5 4.4-0.1 2.1 0.6 4.1 1.9 5.5 2.8 1.9 6 5.4 9.7 9.4 7.1 7.6 17.7 19.1 23 14.7l0.3-0.3c3.2-4.1 15.8-24.9 21.4-34.1 3.4-5.6 4.6-7.5 5.1-8.3 7.5-11.5 19-5.5 29.1-0.1 10.5 5.5 23.2 12.3 38.7 9l-86.9-83.5c-2-1.9-2.1-5.1-0.2-7.1 1.9-1.9 5.1-2 7.1-0.1l98.5 94.6-7 2.9c-23.4 9.6-41.5 0-54.8-7-12-6.3-14.1-6.4-16.1-3.3l-0.3 0.5c-0.6 0.9-2.6 4.2-4.7 7.6-3.9 6.5-9.3 15.4-13.9 22.7-6.4 10.2-8.8 14-11.1 15.1-2.5 1.8-5.1 2.5-7.8 2.5zm37.4-47.8l-0.2 0.2c0 0 0.1-0.1 0.2-0.2z"/>
	<path id="Layer" class="s0" d="m37.9 111.8c-2.8 0-5-2.3-5-5 0-27.5 22.3-49.8 49.7-49.8 2.8 0 5 2.3 5 5 0 2.8-2.2 5-5 5-21.9 0-39.7 17.8-39.7 39.8 0 2.7-2.2 5-5 5z"/>
	<path id="Layer" fill-rule="evenodd" class="s0" d="m84.8 141c-18.6 0-33.8-15.1-33.8-33.7 0-18.6 15.2-33.7 33.8-33.7 18.6 0 33.7 15.1 33.7 33.7 0 18.6-15.1 33.7-33.7 33.7zm0-57.4c-13.1 0-23.8 10.6-23.8 23.7 0.1 13.1 10.7 23.7 23.8 23.7 13 0 23.7-10.6 23.7-23.7 0-13.1-10.7-23.7-23.7-23.7z"/>
</svg>