<svg version="1.2" xmlns="http://www.w3.org/2000/svg" viewBox="0 0 1000 1000" width="100" height="100">
	<title>9907830_4302972-ai</title>
	<defs>
		<linearGradient id="g1" x2="1" gradientUnits="userSpaceOnUse" gradientTransform="matrix(39.58,-209.543,206.815,39.065,475.678,368.29)">
			<stop offset="0" stop-color="#165953"/>
			<stop offset=".98" stop-color="#165953"/>
			<stop offset="1" stop-color="#165953"/>
		</linearGradient>
		<linearGradient id="g2" x2="1" gradientUnits="userSpaceOnUse" gradientTransform="matrix(-12.611,-252.219,252.811,-12.641,199.542,424.73)">
			<stop offset="0" stop-color="#17bfa0"/>
			<stop offset=".01" stop-color="#17bfa0"/>
			<stop offset=".98" stop-color="#17bfa0"/>
			<stop offset="1" stop-color="#17bfa0"/>
		</linearGradient>
	</defs>
	<style>
		.s0 { fill: #e7ebf4 } 
		.s1 { fill: url(#g1) } 
		.s2 { fill: #ffffff } 
		.s3 { fill: #0d1526 } 
		.s4 { fill: url(#g2) } 
		.s5 { fill: #ffffff;stroke: #e7ebf4;stroke-linecap: round;stroke-miterlimit:10;stroke-width: 14 } 
	</style>
	<g id="BACKGROUND">
	</g>
	<g id="OBJECTS">
		<g id="&lt;Group&gt;">
			<g id="&lt;Group&gt;">
				<g id="&lt;Group&gt;">
					<g id="&lt;Group&gt;">
					</g>
				</g>
			</g>
			<g id="&lt;Group&gt;">
				<g id="&lt;Group&gt;">
					<g id="&lt;Group&gt;">
						<path id="&lt;Compound Path&gt;" fill-rule="evenodd" class="s0" d="m808 222c-9-28.7-25.6-46.6-29.4-50.5-5.1-6.7-39.1-48.6-100.8-48.6-25.1 0-51.4 7.1-78.3 21-42.5 22-70.8 50.1-84 83.5-8.8 22.1-10.7 45.9-5.9 70.9 1.1 5.5 2.3 9.9 3 12.9l0.1 0.2c3.1 11.4 4.7 28.8-12.7 52.8-17.4-24-15.8-41.4-12.7-52.8l0.1-0.2c0.7-3 1.9-7.5 3-12.9 4.8-25 2.9-48.8-5.9-70.9-13.2-33.4-41.5-61.5-84-83.5-26.9-13.9-53.2-21-78.3-21-61.7 0-95.7 41.9-100.8 48.6-3.8 3.9-20.4 21.8-29.4 50.5-9.2 29.2-11.9 75.7 27.2 130.6 19.3 27.1 40.7 47.1 63.7 59.5 18.7 10.2 38.5 15.3 58.9 15.3 14.2 0 28.6-2.5 42.9-7.4 5.3-1.9 9.6-3.7 12.4-4.8l0.2-0.2c7.1-2.9 13.6-4.3 20.5-4.3 7.9 0 16.3 1.9 25.3 5.6q-0.1 0.1-0.2 0.1l-0.2 0.1-0.1 0.1q-0.9 0.6-1.9 1.3l-0.1 0.1q-1 0.6-1.9 1.3l2.9 4.5-3-4.5q-0.9 0.6-1.7 1.2l-0.2 0.1c-5.5 3.6-10.3 6.5-14.1 8.8-5.1 3.1-8.9 5.4-11.7 7.8l-0.2 0.1q-0.5 0.4-0.8 0.8-0.2 0.1-0.3 0.2-0.4 0.4-0.7 0.7-0.2 0.2-0.4 0.4-0.3 0.4-0.6 0.7-0.2 0.2-0.4 0.5-0.3 0.4-0.5 0.7-0.2 0.3-0.4 0.6-0.3 0.4-0.5 0.8-0.2 0.3-0.4 0.7-0.2 0.4-0.4 0.8-0.2 0.5-0.3 0.9-0.2 0.4-0.3 0.8-0.2 0.5-0.3 1-0.1 0.5-0.2 0.9-0.1 0.5-0.1 1-0.1 0.4-0.1 0.8 0 0.5 0 1.1 0 0.4 0 0.8 0 0.5 0.1 1 0.1 0.4 0.1 0.7 0.1 0.5 0.2 1 0.1 0.3 0.2 0.7 0.1 0.4 0.3 0.8 0.1 0.4 0.2 0.7 0.1 0.4 0.3 0.8 0.1 0.2 0.2 0.5 0.2 0.4 0.4 0.8 0.1 0.3 0.3 0.5 0.1 0.4 0.3 0.7 0.2 0.3 0.3 0.5 0.2 0.4 0.4 0.7l0.3 0.5q0.2 0.3 0.5 0.6l0.3 0.5q0.2 0.3 0.4 0.6l0.4 0.5q0.2 0.3 0.4 0.6l0.3 0.4 0.1 0.1 0.5 0.6 0.3 0.4 0.6 0.7 0.3 0.4 0.1 0.1 0.5 0.7 0.3 0.3 0.1 0.1 0.6 0.7 0.4 0.5 0.1 0.1 0.5 0.7 0.4 0.4 0.1 0.1 0.1 0.1 0.6 0.6 0.2 0.3 0.1 0.2 0.8 0.8 0.2 0.3 0.2 0.2 1.8 2.1 1.1 1.3 0.2 0.1 0.2 0.3 1 1.1 0.1 0.1 0.3 0.4 1.4 1.6q1.5 1.7 2.8 3.3l0.4 0.4 0.2 0.3 0.6 0.6 2.2 2.6 0.1 0.1 0.2 0.3 0.6 0.7 0.2 0.1 0.1 0.1 0.3 0.4 0.6 0.7v0.1l0.1 0.1 0.4 0.4 0.5 0.6 0.1 0.1 0.1 0.1 0.3 0.4 0.7 0.6v0.1l0.4 0.4 0.6 0.6 0.4 0.5 0.5 0.6 0.4 0.4 0.6 0.6 0.4 0.4q0.3 0.3 0.6 0.6l0.4 0.4q0.3 0.2 0.5 0.5l0.5 0.4q0.3 0.3 0.5 0.5l0.5 0.4q0.3 0.2 0.6 0.5 0.2 0.2 0.4 0.3 0.4 0.3 0.7 0.5 0.2 0.2 0.5 0.4 0.3 0.2 0.6 0.4 0.3 0.2 0.6 0.3 0.4 0.2 0.7 0.4 0.3 0.2 0.6 0.4 0.4 0.2 0.8 0.3 0.4 0.2 0.7 0.3 0.5 0.2 0.9 0.3 0.4 0.2 0.8 0.3 0.4 0.1 0.9 0.2 0.4 0.1 0.9 0.1 0.4 0.1 1 0.2 0.4 0 0.8 0 0.3 0 0.5 0 0.3 0 0.6 0 0.4 0 0.8-0.1 0.5 0 1-0.1 0.4-0.1 0.9-0.1c0.3-0.1 0.6-0.2 0.9-0.3q0.4-0.1 0.8-0.2 0.5-0.2 0.8-0.3 0.4-0.2 0.8-0.4 0.4-0.2 0.7-0.3 0.4-0.2 0.8-0.4 0.3-0.2 0.6-0.4 0.3-0.2 0.7-0.5 0.2-0.1 0.5-0.3 0.3-0.3 0.7-0.6 0.2-0.1 0.3-0.2 0.5-0.4 0.9-0.7v-0.1l0.1-0.1c2.8-2.5 5.6-5.9 9.4-10.5 2.8-3.5 6.3-7.8 10.7-12.7l0.1-0.1q0.7-0.8 1.4-1.6l-3.9-3.7 4 3.6q0.7-0.9 1.5-1.7l0.2-0.2q0.7-0.8 1.5-1.7l0.2-0.1q0.8-0.9 1.6-1.8l0.1-0.1 0.1-0.1q0.8-0.8 1.7-1.7l0.1-0.2 0.1-0.1q0.8-0.9 1.7-1.7l0.2-0.2 0.1-0.2q0.9-0.8 1.8-1.7l0.1-0.2 0.2-0.2q0.9-0.9 1.8-1.8l0.2-0.2 0.2-0.1q0.5-0.6 1.1-1.1 0.6 0.5 1.1 1.1l0.2 0.1 0.2 0.2q0.9 0.9 1.8 1.8l0.2 0.2 0.1 0.2q0.9 0.9 1.8 1.8l0.1 0.1 0.2 0.1q0.9 0.9 1.7 1.8l0.1 0.1 0.1 0.2q0.9 0.9 1.7 1.7l0.1 0.1 0.1 0.1q0.8 0.9 1.6 1.8l0.2 0.1q0.8 0.9 1.5 1.7h0.1v0.1c0.6 0.7 1.1 1.2 1.6 1.8l4-3.6 0.1 0.1-4 3.6q0.7 0.8 1.5 1.6c4.4 5 7.9 9.3 10.7 12.8 3.8 4.6 6.6 8 9.4 10.5l0.1 0.1v0.1q0.4 0.3 0.9 0.7 0.1 0.1 0.3 0.2 0.4 0.3 0.8 0.6 0.2 0.2 0.4 0.3 0.4 0.3 0.7 0.5 0.3 0.2 0.6 0.3 0.4 0.3 0.8 0.5 0.3 0.1 0.7 0.3 0.4 0.2 0.8 0.4 0.3 0.1 0.7 0.2 0.5 0.2 0.9 0.3 0.5 0.1 0.9 0.2 0.5 0.1 0.9 0.2 0.5 0.1 0.9 0.1 0.6 0.1 1 0.1 0.2 0 0.5 0 0.2 0 0.5 0 0.4 0 0.9 0 0.4-0.1 1-0.2 0.4 0 0.8-0.1 0.5-0.1 0.9-0.2 0.4-0.1 0.8-0.3 0.4-0.1 0.9-0.3 0.3-0.1 0.6-0.3 0.5-0.1 0.9-0.3 0.3-0.2 0.6-0.4 0.3-0.1 0.7-0.4 0.3-0.1 0.5-0.3 0.4-0.2 0.7-0.5 0.3-0.1 0.5-0.3 0.3-0.2 0.7-0.5 0.2-0.2 0.4-0.3 0.3-0.3 0.6-0.5l0.5-0.4q0.2-0.2 0.5-0.5l0.5-0.4q0.2-0.2 0.5-0.5l0.4-0.4q0.3-0.3 0.6-0.6l0.4-0.4 0.6-0.6 0.3-0.4 0.6-0.6 0.4-0.4 0.6-0.7 0.4-0.4-4-3.6 0.1-0.1 4 3.6 0.6-0.6 0.3-0.4 0.1-0.1 0.6-0.8 0.3-0.2 0.1-0.2 0.7-0.8 0.3-0.3 0.1-0.2 0.8-0.8 0.5-0.6 1.9-2.3 0.7-0.7 0.2-0.3 0.4-0.4q1.3-1.6 2.8-3.3l1.4-1.6 0.3-0.4 0.1-0.1 1-1.1 0.2-0.3 0.2-0.1 1.1-1.3 1.8-2.1 0.2-0.2 0.2-0.3 0.7-0.8 0.2-0.2 0.2-0.3 0.6-0.6 0.1-0.1 0.1-0.1 0.3-0.4 0.6-0.7 0.1-0.1 0.4-0.4 0.6-0.8 0.1-0.1 0.3-0.3 0.5-0.7 0.1-0.1 0.3-0.4 0.5-0.6-4.1-3.4 4.2 3.3 0.3-0.4 0.5-0.6 0.1-0.1 0.3-0.4q0.2-0.3 0.4-0.6l0.4-0.5q0.2-0.3 0.4-0.6l0.3-0.5q0.3-0.3 0.5-0.6l0.3-0.5q0.2-0.3 0.4-0.7 0.1-0.2 0.3-0.5 0.2-0.3 0.3-0.7 0.2-0.2 0.3-0.5 0.2-0.4 0.4-0.7 0.1-0.4 0.2-0.6 0.2-0.4 0.3-0.8 0.1-0.3 0.2-0.7 0.2-0.4 0.3-0.8 0.1-0.4 0.2-0.7 0.1-0.5 0.2-1 0-0.4 0.1-0.7 0.1-0.5 0.1-1 0-0.4 0-0.9 0-0.5 0-1 0-0.4-0.1-0.8 0-0.5-0.1-1-0.1-0.5-0.2-0.9-0.1-0.5-0.3-0.9-0.1-0.5-0.3-0.9c-0.1-0.3-0.2-0.6-0.3-0.9q-0.2-0.4-0.4-0.7-0.2-0.5-0.4-0.8-0.2-0.4-0.5-0.7-0.2-0.4-0.4-0.7-0.2-0.3-0.5-0.7-0.2-0.3-0.4-0.5-0.3-0.3-0.6-0.7-0.2-0.2-0.4-0.4-0.3-0.3-0.7-0.7-0.1-0.1-0.3-0.2-0.4-0.4-0.8-0.8l-0.2-0.1c-2.8-2.4-6.6-4.7-11.7-7.8-4.3-2.6-9.6-5.8-16-10.1h-0.1q-0.9-0.7-1.9-1.3l-0.1-0.1q-1-0.7-1.9-1.3l-0.1-0.1-0.2-0.1q-0.1 0-0.2-0.1c9-3.7 17.4-5.6 25.3-5.6 6.9 0 13.4 1.4 20.5 4.3l0.2 0.2c2.8 1.1 7.1 2.9 12.4 4.8 14.3 4.9 28.7 7.4 42.9 7.4 20.4 0 40.2-5.1 58.9-15.3 23-12.4 44.4-32.4 63.7-59.5 39.1-54.9 36.4-101.4 27.2-130.6zm-356.8 201.7zm31.5 36.7z"/>
						<g id="&lt;Group&gt;">
							<path id="&lt;Path&gt;" class="s1" d="m772 346.4c70.9-99.5-1.6-167.8-1.6-167.8 0 0-57.5-81.4-165.9-25.2-92.4 47.8-90.3 112.5-84.4 142.8l98.7 113.6c29.1 10.1 92.9 21.3 153.2-63.4z"/>
							<path id="&lt;Path&gt;" class="s2" d="m523.1 308.7c5.2 19.5 5.5 50.1-43.1 92.2-66.8 58.1-81 35-48.8 72.1 32.3 37.1 11.4 19.9 78.3-38.2 48.5-42.1 78.7-37.5 97.4-29.6 2.7 1.2 6.8 2.9 11.9 4.6l-98.7-113.6c1.1 5.3 2.2 9.5 3 12.5z"/>
							<path id="&lt;Path&gt;" class="s3" d="m563.7 382.7c2.7-2.6 2.9-6.8 0.5-9.6l-7.7-8.8-7.7-8.9c-2.4-2.8-6.6-3.2-9.5-0.9l-65.1 51.4c-61.8 51.8-74.2 31.1-43 67.1 31.3 36 12.6 20.8 72.6-33.1z"/>
						</g>
						<g id="&lt;Group&gt;">
							<path id="&lt;Path&gt;" class="s4" d="m228 346.4c-70.9-99.5 1.6-167.8 1.6-167.8 0 0 57.5-81.4 165.9-25.2 92.4 47.8 90.3 112.5 84.4 142.8l-98.7 113.6c-29.1 10.1-92.9 21.3-153.2-63.4z"/>
							<path id="&lt;Path&gt;" class="s2" d="m476.9 308.7c-5.2 19.5-5.5 50.1 43.1 92.2 66.8 58.1 81 35 48.8 72.1-32.3 37.1-11.4 19.9-78.3-38.2-48.5-42.1-78.7-37.5-97.4-29.6-2.7 1.2-6.8 2.9-11.9 4.6l98.7-113.6c-1.1 5.3-2.2 9.5-3 12.5z"/>
							<path id="&lt;Path&gt;" class="s3" d="m438.3 382.7c-2.7-2.6-2.9-6.8-0.5-9.6l7.7-8.8 7.7-8.9c2.4-2.8 6.6-3.2 9.5-0.9l65.1 51.4c61.8 51.8 74.2 31.1 43 67.1-31.3 36-12.6 20.8-72.6-33.1z"/>
						</g>
						<g id="&lt;Group&gt;">
							<g id="&lt;Group&gt;">
								<g id="&lt;Group&gt;">
									<path id="&lt;Path&gt;" class="s0" d="m478.5 176.6c0 22.7-18.4 41.1-41.1 41.1-22.7 0-41.1-18.4-41.1-41.1 0-22.7 18.4-41.1 41.1-41.1 22.7 0 41.1 18.4 41.1 41.1z"/>
								</g>
							</g>
							<g id="&lt;Group&gt;">
								<g id="&lt;Group&gt;">
									<path id="&lt;Path&gt;" class="s0" d="m437.4 176.6c9.5-0.3 19.1 0.5 28.6 1.7 9.5 1.3 18.9 3.2 28.2 5.6 9.3 2.3 18.5 5.3 27.5 8.6 9.1 3.3 17.9 7.2 26.6 11.5 8.7 4.1 17 9.1 25.2 14.2 8.2 5.1 16 10.9 23.6 16.8 15.1 12.2 28.9 25.9 41 40.8l-8.5 2.8c0.7-6.4 1.1-13.2 1.2-19.9q0.4-10.1 0.2-20.2c0-3.4-0.1-6.7-0.2-10.1-0.2-3.4-0.3-6.8-0.6-10.1-0.3-6.8-1.1-13.5-1.7-20.3 2 6.5 3.8 13.1 5.2 19.8 1.4 6.7 2.5 13.5 3.4 20.3q1.3 10.2 1.9 20.5c0.3 6.9 0.5 13.7 0.3 20.8l-0.3 11.6-8.2-8.9c-12.6-13.7-26.4-26.3-41-37.7-3.8-2.8-7.4-5.7-11.2-8.3l-5.7-4.1-5.8-3.8c-7.8-5.1-15.8-9.8-24-14.3-16.4-8.8-33.5-16.4-51.2-22.6-17.6-6.3-35.8-11.5-54.5-14.7z"/>
								</g>
							</g>
							<g id="&lt;Group&gt;">
								<g id="&lt;Group&gt;">
									<path id="&lt;Path&gt;" class="s0" d="m649.2 292c2.5-5.2 4.7-10.3 6.8-15.4 2.2-5 4.2-10.1 6.3-15.1l6.1-15.3c1.1-2.6 2.1-5.2 3.3-7.8 1.2-2.5 2.2-5.2 3.7-7.7 0.3 2.9 0.2 5.8 0.1 8.7-0.2 2.8-0.5 5.7-1 8.5-1 5.7-2.6 11.2-4.8 16.6-2.2 5.3-4.9 10.5-8.2 15.2-3.4 4.7-7.2 9.2-12.3 12.3z"/>
								</g>
							</g>
						</g>
					</g>
				</g>
			</g>
			<g id="&lt;Group&gt;">
				<g id="&lt;Group&gt;">
					<g id="&lt;Group&gt;">
						<g id="&lt;Group&gt;">
							<g id="&lt;Group&gt;">
								<g id="&lt;Group&gt;">
									<path id="&lt;Compound Path&gt;" fill-rule="evenodd" class="s0" d="m293 513.7c21.5-4.8 32.4-6.9 54.1-10.4q9-1.5 16.6 0 7.7 1.5 13.2 5.1 5.5 3.7 8.6 9.1 3.1 5.3 3.1 11.5 0 7.5-2.4 14.4-2.5 6.8-7.6 12.3-5.1 5.4-13 9.4-7.8 3.9-18.5 5.6c-6.6 1.1-9.8 1.6-16.4 2.8 0 8.2 0 12.3 0 20.4 4.3-0.7 6.5-1.1 10.8-1.8 0 7.7 0 11.6 0 19.3-19.5 3.3-29.2 5.2-48.5 9.6 0-7.8 0-11.7 0-19.4 4.8-1.1 7.3-1.6 12.1-2.6q0-34.3 0-68.5c-4.8 1.1-7.3 1.6-12.1 2.7 0-7.8 0-11.7 0-19.5zm37.7 11.8c0 11.5 0 17.3 0 28.8 4.3-0.7 6.4-1.1 10.6-1.8q8.9-1.5 14.1-5.7 5.2-4.2 5.2-11.5 0-6.9-4.9-10.1c-3.3-2-8.1-2.6-14.4-1.5-4.2 0.7-6.3 1.1-10.6 1.8z"/>
									<path id="&lt;Compound Path&gt;" class="s0" d="m401.5 496c20.2-2.1 30.4-2.9 50.7-3.9 0 7.7 0 11.6 0 19.4-5 0.2-7.5 0.4-12.5 0.7q0 34.2 0 68.5c5-0.3 7.5-0.5 12.5-0.7 0 7.7 0 11.6 0 19.3-20.3 1.1-30.5 1.8-50.7 3.9 0-7.7 0-11.6 0-19.3 4.9-0.5 7.3-0.8 12.3-1.2q-0.1-34.3-0.1-68.5c-4.9 0.4-7.3 0.7-12.2 1.2 0-7.8 0-11.7 0-19.4z"/>
									<path id="&lt;Compound Path&gt;" class="s0" d="m539.8 491.8c18 0.7 27 1.3 45 3 0 7.7 0 11.6 0 19.4-3.8-0.3-5.8-0.5-9.6-0.8q0 43.9 0 87.8c-10.4-0.8-15.6-1.2-25.9-1.7q-24.5-35.5-49.4-70.7c0 20 0 30 0 50 3.9 0 5.9 0 9.9 0 0 7.8 0 11.7 0 19.4-18-0.2-27-0.1-45 0.6 0-7.8 0-11.6 0-19.4 3.9-0.1 5.9-0.2 9.8-0.3q0-34.2 0-68.4c-3.9 0.1-5.8 0.2-9.6 0.3 0-7.8 0-11.7 0-19.5 14.3-0.5 21.5-0.6 35.8-0.6q24.8 35.7 49.1 71.6c0-20.3 0-30.5 0-50.8-4.1-0.2-6.1-0.3-10.1-0.5 0-7.8 0-11.7 0-19.4z"/>
									<path id="&lt;Compound Path&gt;" class="s0" d="m682.9 616.1c0-7.4 0-11 0-18.4q-4.8 6.8-9.3 9.5-4.6 2.8-10.4 4c-3.8 0.7-9 0.6-15.4-0.5q-4.8-0.8-9.6-2.5-4.9-1.7-9.4-4-4.5-2.4-8.8-5.4-4.3-3-7.8-6.6-8.7-8.9-13.5-19.8-4.8-11-4.8-23.3 0-7.6 2.1-14.4 2-6.9 5.7-12.6 3.6-5.8 8.8-10.3 5.2-4.4 11.5-7.2 6.4-2.8 13.7-3.7 7.3-0.9 15.3 0.4 9.1 1.5 15.8 4.9 6.8 3.4 14.5 11c6.9 1.4 10.4 2.1 17.3 3.6 0 9.5 0 14.3 0 23.9-9.6-2.1-14.3-3-23.9-4.8q-3.5-5.7-6.7-8.5-3.1-2.9-6.8-5-3.7-2.1-10.2-3.2-6.6-1.1-12.1 0.8-5.6 1.9-9.7 5.9-4.1 4-6.4 9.9-2.4 5.8-2.4 12.4 0 6.4 2.1 12.5 2.1 6 6.4 11.3 4.3 5.2 10 8.5 5.6 3.3 12.1 4.4 8.2 1.3 14.3-2 6.1-3.3 8.8-10.3c-8.9-1.7-13.4-2.5-22.4-4 0-7.7 0-11.6 0-19.3 21.8 3.5 32.7 5.6 54.2 10.4q0 28.6 0 57.3c-9.2-2.1-13.8-3.1-23-4.9z"/>
								</g>
							</g>
							<g id="&lt;Group&gt;">
								<g id="&lt;Group&gt;">
									<path id="&lt;Compound Path&gt;" fill-rule="evenodd" class="s0" d="m261.5 644.8c21.5-4.8 32.3-6.9 54-10.6q9.1-1.6 16.7-0.2 7.6 1.4 13.1 5 5.5 3.6 8.6 9 3.1 5.3 3.1 11.5 0 7.5-2.4 14.4-2.5 6.8-7.6 12.4-5.1 5.5-13 9.5-7.8 4-18.5 5.8c-6.5 1.1-9.8 1.7-16.3 2.9 0 8.2 0 12.3 0 20.5 4.3-0.8 6.4-1.2 10.7-2 0 7.8 0 11.6 0 19.4-19.4 3.4-29.1 5.4-48.4 9.7 0-7.8 0-11.7 0-19.4 4.8-1.1 7.2-1.6 12.1-2.6q0-34.2 0-68.5c-4.9 1.1-7.3 1.6-12.1 2.7 0-7.8 0-11.7 0-19.5zm37.7 11.7c0 11.6 0 17.3 0 28.8 4.2-0.8 6.3-1.1 10.6-1.9q8.8-1.5 14-5.8 5.2-4.2 5.2-11.6 0-6.8-4.9-9.9c-3.2-2.1-8-2.6-14.3-1.5-4.3 0.8-6.4 1.1-10.6 1.9z"/>
									<path id="&lt;Compound Path&gt;" fill-rule="evenodd" class="s0" d="m423.4 730.4q-8 0.5-15.4-0.8-7.3-1.4-13.7-4.4-6.3-3-11.5-7.5-5.2-4.5-8.9-10.2-3.6-5.8-5.6-12.6-2.1-6.8-2.1-14.6 0-7.7 2.1-15 2-7.4 5.6-14 3.7-6.6 8.9-12.2 5.2-5.7 11.5-9.9 6.4-4.2 13.7-6.8 7.4-2.6 15.4-3.2 8.1-0.5 15.5 1 7.3 1.6 13.7 4.9 6.4 3.4 11.6 8.3 5.2 4.9 8.9 11 3.7 6.1 5.8 13.1 2 7.1 2 14.8 0 7.7-2 14.8-2.1 7.2-5.8 13.4-3.7 6.3-8.9 11.5-5.2 5.3-11.6 9.1-6.4 3.9-13.7 6.3-7.4 2.4-15.5 3zm0-22.3q6.8-0.4 12.5-3.4 5.7-3 9.7-7.7 4.1-4.8 6.3-11 2.3-6.1 2.3-12.9 0-6.9-2.3-12.8-2.3-6-6.4-10.4-4.1-4.4-9.7-6.7-5.7-2.3-12.4-1.8-6.7 0.4-12.3 3.5-5.7 3.2-9.7 8.1-4.1 4.9-6.4 11.2-2.3 6.3-2.3 13.2 0 6.8 2.3 12.6 2.3 5.8 6.4 10 4 4.2 9.7 6.4 5.6 2.2 12.3 1.7z"/>
									<path id="&lt;Compound Path&gt;" class="s0" d="m571.5 620.9c18 1.2 27 2 44.9 3.9 0 7.8 0 11.7 0 19.5-3.8-0.4-5.7-0.6-9.6-1q0 43.9 0 87.8c-10.3-1-15.5-1.5-25.9-2.3q-24.4-36-49.3-71.9c0 20 0 30 0 50 3.9 0.1 5.9 0.2 9.9 0.3 0 7.8 0 11.7 0 19.4-18-0.7-27-0.8-45-0.8 0-7.8 0-11.6 0-19.4 3.9 0 5.9 0 9.8 0q0-34.2 0-68.4c-3.9 0-5.8 0-9.6 0 0-7.8 0-11.7 0-19.5 14.3 0 21.5 0.1 35.8 0.5q24.7 36.3 49.1 72.9c0-20.3 0-30.5 0-50.8-4.1-0.3-6.1-0.5-10.1-0.7 0-7.8 0-11.7 0-19.5z"/>
									<path id="&lt;Compound Path&gt;" class="s0" d="m714.4 747.2c0-7.4 0-11.1 0-18.4q-4.8 6.7-9.3 9.5-4.6 2.7-10.3 3.8c-3.9 0.8-9 0.6-15.5-0.5q-4.8-0.9-9.6-2.6-4.8-1.7-9.3-4.1-4.5-2.4-8.8-5.5-4.3-3-7.8-6.7-8.7-9-13.5-20-4.7-11.1-4.7-23.4 0-7.5 2-14.4 2-6.8 5.7-12.5 3.6-5.7 8.8-10.1 5.2-4.4 11.5-7.1 6.3-2.7 13.6-3.5 7.3-0.9 15.3 0.5 9.1 1.5 15.9 5 6.7 3.5 14.4 11.1c6.9 1.4 10.4 2.1 17.3 3.6 0 9.6 0 14.3 0 23.9-9.5-2.1-14.3-3-23.8-4.9q-3.6-5.7-6.7-8.5-3.2-2.9-6.8-5-3.7-2.2-10.3-3.3-6.5-1.1-12.1 0.7-5.6 1.8-9.6 5.8-4.1 3.9-6.5 9.8-2.3 5.8-2.3 12.3 0 6.5 2.1 12.6 2.1 6.1 6.4 11.4 4.3 5.2 9.9 8.6 5.7 3.4 12.1 4.5 8.2 1.4 14.3-1.9 6.1-3.3 8.8-10.3c-8.9-1.7-13.4-2.5-22.3-4.1 0-7.7 0-11.6 0-19.3 21.7 3.7 32.6 5.8 54.2 10.6q0 28.7 0 57.3c-9.2-2.1-13.8-3.1-23.1-4.9z"/>
								</g>
							</g>
							<g id="&lt;Group&gt;">
								<path id="&lt;Compound Path&gt;" fill-rule="evenodd" class="s2" d="m341.5 611.4c-19.5 3.3-29.2 5.2-48.5 9.6 0-7.8 0-11.7 0-19.4 4.8-1.1 7.3-1.6 12.1-2.6q0-34.3 0-68.5c-4.8 1.1-7.3 1.6-12.1 2.7 0-7.8 0-11.7 0-19.5 21.5-4.8 32.4-6.9 54.1-10.4q9-1.5 16.6 0 7.7 1.5 13.2 5.1 5.5 3.7 8.6 9.1 3.1 5.3 3.1 11.5 0 7.5-2.4 14.4-2.5 6.8-7.6 12.3-5.1 5.4-13 9.4-7.8 3.9-18.5 5.6c-6.6 1.1-9.8 1.6-16.4 2.8 0 8.2 0 12.3 0 20.4 4.3-0.7 6.5-1.1 10.8-1.8 0 7.7 0 11.6 0 19.3zm-10.8-57.1c4.3-0.7 6.4-1.1 10.6-1.8q8.9-1.5 14.1-5.7 5.2-4.2 5.2-11.5 0-6.9-4.9-10.1c-3.3-2-8.1-2.6-14.4-1.5-4.2 0.7-6.3 1.1-10.6 1.8 0 11.5 0 17.3 0 28.8z"/>
								<path id="&lt;Path&gt;" class="s2" d="m401.5 496c0 7.7 0 11.6 0 19.4 4.9-0.5 7.3-0.8 12.3-1.2q-0.1 7.6-0.1 15.3l28.9-36.9c-14.4 0.8-24.3 1.6-41.1 3.4z"/>
								<path id="&lt;Path&gt;" class="s2" d="m509.8 598.2c0-7.7 0-11.6 0-19.4-4 0-6 0-9.9 0 0-7.6 0-13.8 0-19.6l-30.9 39.4c15.3-0.5 24.3-0.6 40.8-0.4z"/>
								<path id="&lt;Path&gt;" class="s2" d="m539.8 511.2c4 0.2 6 0.3 10.1 0.5 0 20.3 0 30.5 0 50.8q-12.2-18-24.5-35.9l-14.3 18.2c12.8 18.2 25.5 36.4 38.2 54.7 10.3 0.5 15.5 0.9 25.9 1.7q0-43.9 0-87.8c3.8 0.3 5.8 0.5 9.6 0.8 0-7.8 0-11.7 0-19.4-13.4-1.2-21.8-1.9-32.6-2.5l-12.4 15.9q0 1.4 0 3z"/>
								<path id="&lt;Path&gt;" class="s2" d="m705.9 621q0-16.5 0-33l-22.1 28.3c8.6 1.7 13.3 2.7 22.1 4.7z"/>
								<path id="&lt;Path&gt;" class="s2" d="m651.7 572.6c3.1 0.5 5.6 1 8 1.4l13.4-17.1c-6.4-1.2-13.1-2.3-21.4-3.6 0 7.7 0 11.6 0 19.3z"/>
								<path id="&lt;Path&gt;" class="s2" d="m638.9 584.5q-5.7-3.3-10-8.5-4.3-5.3-6.4-11.3-2.1-6.1-2.1-12.5 0-6.6 2.4-12.4 2.3-5.9 6.4-9.9 4.1-4 9.7-5.9 5.5-1.9 12.1-0.8 6.5 1.1 10.2 3.2 3.7 2.1 6.8 5 3.2 2.8 6.7 8.5c4 0.7 7.2 1.3 10.2 1.9l13.7-17.5q0-1.6 0-3.5c-6.9-1.5-10.4-2.2-17.3-3.6q-7.7-7.6-14.5-11-6.7-3.4-15.8-4.9-8-1.3-15.3-0.4-7.3 0.9-13.7 3.7-6.3 2.8-11.5 7.2-5.2 4.5-8.8 10.3-3.7 5.7-5.7 12.6-2.1 6.8-2.1 14.4 0 12.3 4.8 23.3 4.8 10.9 13.5 19.8 3.5 3.6 7.8 6.6 4.3 3 8.8 5.4 2.6 1.3 5.3 2.4l14.4-18.3q-5.1-1.1-9.6-3.8z"/>
								<path id="&lt;Path&gt;" class="s2" d="m299.2 656.5c4.2-0.8 6.3-1.1 10.6-1.9q3.5-0.6 6.5-0.6l15.6-20q-7.5-1.4-16.4 0.2c-21.7 3.7-32.5 5.8-54 10.6 0 7.8 0 11.7 0 19.5 4.8-1.1 7.2-1.6 12.1-2.7q0 23.5 0 47l25.6-32.7c0-6.3 0-11.5 0-19.4z"/>
								<path id="&lt;Path&gt;" class="s2" d="m452.6 721.1q6.4-3.8 11.6-9.1 5.2-5.2 8.9-11.5 3.7-6.2 5.8-13.4 2-7.1 2-14.8 0-7.7-2-14.8-2.1-7-5.8-13.1-3.7-6.1-8.9-11-5.2-4.9-11.6-8.3-1.5-0.8-3.1-1.5l-15 19.2c0.4 0.1 0.8 0.2 1.3 0.4q5.6 2.3 9.7 6.7 4.1 4.4 6.4 10.4 2.3 5.9 2.3 12.8 0 6.8-2.3 12.9-2.2 6.2-6.3 11-4 4.7-9.7 7.7-5.7 3-12.5 3.4-6.7 0.5-12.3-1.7-5.7-2.2-9.7-6.4-3.3-3.4-5.5-8l-17 21.9q1.8 2 3.9 3.8 5.2 4.5 11.5 7.5 6.4 3 13.7 4.4 7.4 1.3 15.4 0.8 8.1-0.6 15.5-3 7.3-2.4 13.7-6.3z"/>
								<path id="&lt;Path&gt;" class="s2" d="m616.4 624.8c-17.9-1.9-26.9-2.7-44.9-3.9 0 7.8 0 11.7 0 19.5 4 0.2 6 0.4 10.1 0.7 0 13.4 0 22.4 0 32.8l34.8-44.6c0-1.4 0-2.8 0-4.5z"/>
								<path id="&lt;Path&gt;" class="s2" d="m541.5 707.2c-4-0.1-5.9-0.2-9.9-0.3 0-20 0-30 0-50q14.8 21.5 29.6 43l13.8-17.7q-21.1-31.7-42.5-63.2c-14.3-0.4-21.5-0.5-35.8-0.5 0 7.8 0 11.7 0 19.5 3.8 0 5.7 0 9.6 0q0 34.2 0 68.4c-3.9 0-5.9 0-9.8 0 0 7.8 0 11.6 0 19.4 17.6 0 26.6 0.1 43.8 0.8l1.2-1.6c0-6.7 0-10.6 0-17.8z"/>
								<path id="&lt;Path&gt;" class="s2" d="m606.8 731.1q0-8.2 0-16.4l-11.9 15.3c3.5 0.3 7.2 0.6 11.9 1.1z"/>
								<path id="&lt;Path&gt;" class="s2" d="m683.3 703.5c8.9 1.6 13.4 2.4 22.3 4.1q-2.7 7-8.8 10.3-6.1 3.3-14.3 1.9-6.4-1.1-12.1-4.5-5.6-3.4-9.9-8.6-4.3-5.3-6.4-11.4-2.1-6.1-2.1-12.6 0-6.5 2.3-12.3 2.4-5.9 6.5-9.8 4-4 9.6-5.8 5.6-1.8 12.1-0.7 6.6 1.1 10.3 3.3 3.6 2.1 6.8 5 3.1 2.8 6.7 8.5c9.5 1.9 14.3 2.8 23.8 4.9 0-9.6 0-14.3 0-23.9-6.9-1.5-10.4-2.2-17.3-3.6q-7.7-7.6-14.4-11.1-6.8-3.5-15.9-5c-3.6-0.6-7.1-0.9-10.5-0.8l-45.6 58.2q1.2 6.7 3.9 13.1 4.8 11 13.5 20 3.5 3.7 7.8 6.7 4.3 3.1 8.8 5.5 4.5 2.4 9.3 4.1 4.8 1.7 9.6 2.6c6.5 1.1 11.6 1.3 15.5 0.5q5.7-1.1 10.3-3.8 4.5-2.8 9.3-9.5c0 7.3 0 11 0 18.4 9.3 1.8 13.9 2.8 23.1 4.9q0-28.6 0-57.3c-21.6-4.8-32.5-6.9-54.2-10.6 0 7.7 0 11.6 0 19.3z"/>
								<path id="&lt;Path&gt;" class="s2" d="m401.5 583.9c0 7.7 0 11.6 0 19.3 20.2-2.1 30.4-2.8 50.7-3.9 0-7.7 0-11.6 0-19.3-5 0.2-7.5 0.4-12.5 0.7q0-34.3 0-68.5c5-0.3 7.5-0.5 12.5-0.7 0-7.8 0-11.7 0-19.4-3.5 0.2-6.6 0.3-9.6 0.5l-28.9 36.9q0.1 26.6 0 53.2c-4.9 0.4-7.3 0.7-12.2 1.2z"/>
								<path id="&lt;Path&gt;" class="s2" d="m500.8 490.9c-14.3 0-21.5 0.1-35.8 0.6 0 7.8 0 11.7 0 19.5 3.8-0.1 5.7-0.2 9.6-0.3q0 34.2 0 68.4c-3.9 0.1-5.9 0.2-9.8 0.3 0 7.8 0 11.6 0 19.4q2.2-0.1 4.2-0.2l30.9-39.4c0-9.4 0-18 0-30.4 3.7 5.4 7.5 10.7 11.2 16l14.3-18.2q-12.2-17.9-24.6-35.7z"/>
								<path id="&lt;Path&gt;" class="s2" d="m539.8 508.2l12.4-15.9c-3.7-0.1-7.8-0.3-12.4-0.5 0 6.7 0 10.5 0 16.4z"/>
								<path id="&lt;Path&gt;" class="s2" d="m261.5 732.7c0 7.7 0 11.6 0 19.4 19.3-4.3 29-6.3 48.4-9.7 0-7.8 0-11.6 0-19.4-4.3 0.8-6.4 1.2-10.7 2 0-8.2 0-12.3 0-20.5 6.5-1.2 9.8-1.8 16.3-2.9q10.7-1.8 18.5-5.8 7.9-4 13-9.5 5.1-5.6 7.6-12.4 2.4-6.9 2.4-14.4 0-6.2-3.1-11.5-3.1-5.4-8.6-9-5.5-3.6-13.1-5-0.1 0-0.3 0l-15.6 20q4.8 0.1 7.8 2.1 4.9 3.1 4.9 9.9 0 7.4-5.2 11.6-5.2 4.3-14 5.8c-4.3 0.8-6.4 1.1-10.6 1.9 0-3.6 0-6.6 0-9.4l-25.6 32.7q0 10.7 0 21.5c-4.9 1-7.3 1.5-12.1 2.6z"/>
								<path id="&lt;Path&gt;" class="s2" d="m395 690q-2.3-5.8-2.3-12.6 0-6.9 2.3-13.2 2.3-6.3 6.4-11.2 4-4.9 9.7-8.1 5.6-3.1 12.3-3.5c4-0.3 7.7 0.2 11.1 1.4l15-19.2q-5-2.2-10.6-3.4-7.4-1.5-15.5-1-8 0.6-15.4 3.2-7.3 2.6-13.7 6.8-6.3 4.2-11.5 9.9-5.2 5.6-8.9 12.2-3.6 6.6-5.6 14-2.1 7.3-2.1 15 0 7.8 2.1 14.6 2 6.8 5.6 12.6 2.2 3.4 5 6.4l17-21.9q-0.4-0.9-0.9-2z"/>
								<path id="&lt;Path&gt;" class="s2" d="m698.6 544.7c0-8.3 0-13 0-20.4l-13.7 17.5c4.2 0.9 8.1 1.7 13.7 2.9z"/>
								<path id="&lt;Path&gt;" class="s2" d="m647.8 610.7c6.4 1.1 11.6 1.2 15.4 0.5q5.8-1.2 10.4-4 4.5-2.7 9.3-9.5c0 7.4 0 11 0 18.4 0.3 0.1 0.6 0.1 0.9 0.2l22.1-28.3q0-12.1 0-24.3c-13.3-3-22.6-4.9-32.8-6.8l-13.4 17.1c4.6 0.7 8.5 1.5 14.4 2.6q-2.7 7-8.8 10.3-6.1 3.3-14.3 2-1.3-0.3-2.5-0.6l-14.4 18.3q2 0.9 4.1 1.6 4.8 1.7 9.6 2.5z"/>
								<path id="&lt;Path&gt;" class="s2" d="m541.5 725l-1.2 1.6q0.6 0 1.2 0c0-0.6 0-1.1 0-1.6z"/>
								<path id="&lt;Path&gt;" class="s2" d="m616.4 644.3c0-6.2 0-9.9 0-15l-34.8 44.6c0 5.3 0 11.1 0 18q-3.3-4.9-6.6-9.7l-13.8 17.7q9.9 14.4 19.7 28.9c5.6 0.5 9.7 0.8 14 1.2l11.9-15.3q0-35.7 0-71.4c3.9 0.4 5.8 0.6 9.6 1z"/>
								<path id="&lt;Path&gt;" class="s2" d="m667.2 631.7q-7.3 0.8-13.6 3.5-6.3 2.7-11.5 7.1-5.2 4.4-8.8 10.1-3.7 5.7-5.7 12.5-2 6.9-2 14.4 0 5.3 0.8 10.3l45.6-58.2q-2.4 0-4.8 0.3z"/>
							</g>
						</g>
					</g>
				</g>
				<path id="&lt;Path&gt;" class="s5" d="m351 762c39.3-6.5 86.9-12.5 149.8-12.5 64.5 0 112.7 6.9 152 12.5"/>
			</g>
		</g>
	</g>
</svg>